<svg width="30" height="30" viewBox="0 0 30 30" fill="none" xmlns="http://www.w3.org/2000/svg">
<path d="M14.7862 14.4511C16.7715 14.4511 18.4904 13.739 19.8953 12.3341C21.2997 10.9295 22.012 9.21086 22.012 7.22536C22.012 5.24044 21.3 3.52159 19.8951 2.11646C18.4902 0.71203 16.7713 0 14.7862 0C12.8007 0 11.0819 0.71203 9.67733 2.11669C8.27272 3.52136 7.5604 5.24026 7.5604 7.22536C7.5604 9.21086 8.27266 10.9298 9.67739 12.3344C11.0825 13.7389 12.8014 14.4511 14.7862 14.4511H14.7862ZM10.9206 3.35976C11.9984 2.28193 13.2628 1.75804 14.7862 1.75804C16.3094 1.75804 17.574 2.28193 18.652 3.35976C19.7298 4.43776 20.254 5.70233 20.254 7.2253C20.254 8.74873 19.7298 10.0131 18.652 11.0911C17.574 12.1692 16.3094 12.6931 14.7862 12.6931C13.2632 12.6931 11.9989 12.169 10.9206 11.0911C9.84256 10.0134 9.31844 8.74879 9.31844 7.22536C9.31844 5.70233 9.84256 4.43776 10.9206 3.35976ZM27.4294 23.0685C27.3888 22.484 27.3069 21.8462 27.1863 21.1729C27.0645 20.4945 26.9078 19.8532 26.7201 19.267C26.526 18.6611 26.2626 18.0629 25.9364 17.4895C25.5983 16.8944 25.201 16.3762 24.7551 15.9498C24.2889 15.5038 23.7181 15.1451 23.0579 14.8834C22.4002 14.6233 21.6712 14.4914 20.8914 14.4914C20.5851 14.4914 20.289 14.6171 19.717 14.9895C19.3104 15.2542 18.9026 15.5171 18.4936 15.7782C18.1006 16.0286 17.5683 16.2632 16.9107 16.4756C16.2691 16.6832 15.6177 16.7885 14.9745 16.7885C14.3319 16.7885 13.6804 16.6832 13.0384 16.4756C12.3816 16.2634 11.849 16.0288 11.4566 15.7784C11.0014 15.4875 10.5895 15.222 10.2322 14.9892C9.66063 14.6168 9.36444 14.4911 9.05823 14.4911C8.27817 14.4911 7.54944 14.6232 6.89185 14.8837C6.2322 15.1449 5.66115 15.5035 5.19445 15.9501C4.74861 16.3767 4.35129 16.8946 4.01343 17.4895C3.68777 18.0628 3.4241 18.6609 3.22998 19.2672C3.04248 19.8534 2.88574 20.4945 2.76398 21.1729C2.64311 21.8453 2.56143 22.4833 2.52088 23.0692C2.48104 23.6421 2.46094 24.2383 2.46094 24.8407C2.46094 26.4067 2.95875 27.6745 3.94043 28.6095C4.90998 29.5322 6.19265 29.9999 7.75288 29.9999H22.1981C23.7578 29.9999 25.0405 29.5321 26.0103 28.6095C26.9922 27.6752 27.49 26.407 27.49 24.8405C27.4898 24.236 27.4695 23.6398 27.4294 23.0685ZM24.7982 27.3357C24.1575 27.9455 23.307 28.2419 22.1978 28.2419H7.75294C6.64359 28.2419 5.79304 27.9455 5.15261 27.336C4.52437 26.7379 4.21904 25.9215 4.21904 24.8407C4.21904 24.2786 4.23756 23.7236 4.2747 23.1907C4.3108 22.6679 4.38474 22.0937 4.49443 21.4835C4.60265 20.8808 4.74041 20.3153 4.90429 19.8033C5.06156 19.3123 5.27601 18.8262 5.54197 18.3579C5.79579 17.9115 6.08783 17.5286 6.41009 17.2201C6.71155 16.9315 7.09153 16.6953 7.53919 16.5182C7.95321 16.3542 8.41856 16.2645 8.9237 16.251C8.98522 16.2838 9.09491 16.3463 9.27251 16.4621C9.63391 16.6976 10.0505 16.9663 10.511 17.2604C11.0301 17.5914 11.6989 17.8903 12.4979 18.1482C13.3148 18.4123 14.1479 18.5465 14.9748 18.5465C15.8018 18.5465 16.6351 18.4123 17.4516 18.1484C18.2513 17.89 18.9198 17.5914 19.4397 17.2599C19.9109 16.9588 20.3158 16.6978 20.6772 16.4621C20.8548 16.3465 20.9645 16.2838 21.026 16.2511C21.5314 16.2645 21.9967 16.3542 22.411 16.5181C22.8584 16.6953 23.2384 16.9317 23.5398 17.2201C23.8621 17.5284 24.1541 17.9114 24.4079 18.3581C24.6741 18.8262 24.8889 19.3126 25.0459 19.8031C25.21 20.3158 25.348 20.8811 25.456 21.4832C25.5654 22.0946 25.6396 22.6691 25.6757 23.1909V23.1914C25.7131 23.7222 25.7318 24.277 25.732 24.8407C25.7318 25.9218 25.4265 26.738 24.7982 27.3357H24.7982Z" fill="url(#paint0_linear_27_249)"/>
<defs>
<linearGradient id="paint0_linear_27_249" x1="2.46094" y1="0.873784" x2="28.8817" y2="2.1563" gradientUnits="userSpaceOnUse">
<stop stop-color="#494BE2"/>
<stop offset="1" stop-color="#2426B0"/>
</linearGradient>
</defs>
</svg>
