<svg xmlns="http://www.w3.org/2000/svg" width="1258" height="167" fill="none"><path fill="url(#a)" d="M43.892 192 .017 48h23.25l31.125 110.25h1.5L86.642 48h23.625l30.375 109.875h1.5L173.267 48h23.25l-43.875 144h-21.75l-31.5-110.625h-2.25L65.642 192h-21.75Zm232.837 3c-13 0-24.407-3.094-34.219-9.281-9.75-6.188-17.375-14.844-22.875-25.969-5.438-11.125-8.156-24.125-8.156-39 0-15 2.718-28.094 8.156-39.281 5.5-11.188 13.125-19.875 22.875-26.063 9.812-6.187 21.219-9.281 34.219-9.281s24.375 3.094 34.125 9.281c9.812 6.188 17.437 14.875 22.875 26.063 5.5 11.187 8.25 24.281 8.25 39.281 0 14.875-2.75 27.875-8.25 39-5.438 11.125-13.063 19.781-22.875 25.969-9.75 6.187-21.125 9.281-34.125 9.281Zm0-19.875c9.875 0 18-2.531 24.375-7.594 6.375-5.062 11.093-11.719 14.156-19.969 3.062-8.25 4.594-17.187 4.594-26.812s-1.532-18.594-4.594-26.906c-3.063-8.313-7.781-15.031-14.156-20.156-6.375-5.126-14.5-7.688-24.375-7.688s-18 2.563-24.375 7.688c-6.375 5.124-11.094 11.843-14.157 20.156-3.062 8.312-4.593 17.281-4.593 26.906s1.531 18.562 4.593 26.812c3.063 8.25 7.782 14.907 14.157 19.969 6.375 5.063 14.5 7.594 24.375 7.594ZM373.112 192V48h21.375v21.75h1.5c2.625-7.125 7.375-12.906 14.25-17.344 6.875-4.437 14.625-6.656 23.25-6.656 1.625 0 3.656.031 6.094.094 2.437.062 4.281.156 5.531.281v22.5c-.75-.188-2.469-.469-5.156-.844-2.625-.437-5.406-.656-8.344-.656-7 0-13.25 1.469-18.75 4.406-5.437 2.875-9.75 6.875-12.937 12-3.125 5.063-4.688 10.844-4.688 17.344V192h-22.125Zm116.212-52.5-.375-27.375h4.5l63-64.125h27.375l-67.125 67.875h-1.875l-25.5 23.625ZM468.699 192V0h22.125v192h-22.125Zm91.5 0-56.25-71.25 15.75-15.375L588.324 192h-28.125Zm103.906 3c-13.875 0-25.843-3.062-35.906-9.188-10-6.187-17.719-14.812-23.156-25.875-5.375-11.125-8.063-24.062-8.063-38.812 0-14.75 2.688-27.75 8.063-39 5.437-11.313 13-20.125 22.687-26.438 9.75-6.374 21.125-9.562 34.125-9.562 7.5 0 14.907 1.25 22.219 3.75 7.313 2.5 13.969 6.563 19.969 12.188 6 5.562 10.781 12.937 14.344 22.124 3.562 9.188 5.343 20.5 5.343 33.938v9.375h-111v-19.125h88.5c0-8.125-1.625-15.375-4.875-21.75-3.187-6.375-7.75-11.406-13.687-15.094C676.793 67.844 669.855 66 661.855 66c-8.812 0-16.437 2.188-22.875 6.563-6.375 4.312-11.281 9.937-14.718 16.874-3.438 6.938-5.157 14.375-5.157 22.313v12.75c0 10.875 1.875 20.094 5.625 27.656 3.813 7.5 9.094 13.219 15.844 17.156 6.75 3.876 14.594 5.813 23.531 5.813 5.813 0 11.063-.813 15.75-2.438 4.75-1.687 8.844-4.187 12.282-7.499 3.437-3.376 6.093-7.563 7.968-12.563l21.375 6c-2.25 7.25-6.031 13.625-11.343 19.125-5.313 5.437-11.875 9.687-19.688 12.75-7.812 3-16.594 4.5-26.344 4.5ZM868.114 48l-53.25 144h-22.5l-53.25-144h24l39.75 114.75h1.5L844.114 48h24Zm81.782 147c-13.875 0-25.844-3.062-35.906-9.188-10-6.187-17.719-14.812-23.157-25.875-5.375-11.125-8.062-24.062-8.062-38.812 0-14.75 2.687-27.75 8.062-39 5.438-11.313 13-20.125 22.688-26.438 9.75-6.374 21.125-9.562 34.125-9.562 7.5 0 14.906 1.25 22.219 3.75 7.312 2.5 13.968 6.563 19.968 12.188 6 5.562 10.777 12.937 14.347 22.124 3.56 9.188 5.34 20.5 5.34 33.938v9.375H898.521v-19.125h88.5c0-8.125-1.625-15.375-4.875-21.75-3.188-6.375-7.75-11.406-13.688-15.094C962.583 67.844 955.646 66 947.646 66c-8.813 0-16.438 2.188-22.875 6.563-6.375 4.312-11.281 9.937-14.719 16.874-3.437 6.938-5.156 14.375-5.156 22.313v12.75c0 10.875 1.875 20.094 5.625 27.656 3.812 7.5 9.094 13.219 15.844 17.156 6.75 3.876 14.593 5.813 23.531 5.813 5.812 0 11.062-.813 15.75-2.438 4.75-1.687 8.844-4.187 12.281-7.499 3.438-3.376 6.094-7.563 7.969-12.563l21.374 6c-2.25 7.25-6.03 13.625-11.343 19.125-5.312 5.437-11.875 9.687-19.687 12.75-7.813 3-16.594 4.5-26.344 4.5Zm112.764-89.625V192h-22.12V48h21.37v22.5h1.88c3.37-7.313 8.5-13.188 15.37-17.625 6.88-4.5 15.75-6.75 26.63-6.75 9.75 0 18.28 2 25.59 6 7.31 3.938 13 9.938 17.06 18 4.07 8 6.1 18.125 6.1 30.375V192h-22.13v-90c0-11.313-2.94-20.125-8.81-26.438-5.88-6.374-13.94-9.562-24.19-9.562-7.06 0-13.37 1.531-18.94 4.594-5.5 3.062-9.84 7.531-13.03 13.406-3.18 5.875-4.78 13-4.78 21.375ZM1254.95 48v18.75h-74.62V48h74.62Zm-52.87-34.5h22.12v137.25c0 6.25.91 10.937 2.72 14.062 1.88 3.063 4.25 5.125 7.13 6.188 2.93 1 6.03 1.5 9.28 1.5 2.43 0 4.43-.125 6-.375l3.75-.75 4.5 19.875c-1.5.562-3.6 1.125-6.28 1.688-2.69.625-6.1.937-10.22.937-6.25 0-12.38-1.344-18.38-4.031-5.94-2.688-10.87-6.782-14.81-12.282-3.88-5.5-5.81-12.437-5.81-20.812V13.5Z"/><defs><linearGradient id="a" x1="604.06" x2="604.06" y1="26.839" y2="165.161" gradientUnits="userSpaceOnUse"><stop stop-color="#fff"/><stop offset="1" stop-color="#23256D"/></linearGradient></defs></svg>