<svg width="60" height="40" viewBox="0 0 60 40" fill="none" xmlns="http://www.w3.org/2000/svg">
<path d="M45.1928 0.0425934C45.9866 -0.0226448 46.807 0.0121502 47.6039 0.0113343L55.0215 0.00801959C55.7281 0.0079346 56.4645 -0.0335913 57.1643 0.0731729C57.6413 0.145958 58.1133 0.377232 58.5043 0.65333C59.2524 1.18151 59.7966 1.9798 59.9446 2.8854C60.1045 3.86413 59.9237 4.87367 59.3321 5.68541C58.8725 6.31586 58.2269 6.79338 57.4667 6.99931C56.6053 7.23266 55.5447 7.11757 54.6539 7.11794L47.9511 7.12858C47.1879 7.12925 45.7658 7.04106 45.0621 7.15403C44.5681 7.23334 44.1105 7.47243 43.8195 7.88513C43.579 8.22651 43.4958 8.64767 43.5699 9.05607C43.6758 9.64034 44.1336 10.1631 44.6976 10.3606C45.5137 10.6461 46.6158 10.4947 47.4792 10.4909L53.7645 10.484C54.8328 10.4841 56.0769 10.3878 57.1185 10.5491C57.2421 10.5688 57.3641 10.5955 57.4845 10.6293C57.605 10.663 57.7231 10.7034 57.8388 10.7507C57.9546 10.7979 58.0673 10.8516 58.1767 10.9118C58.2863 10.9719 58.3919 11.0381 58.4937 11.1104C58.5409 11.143 58.5872 11.1768 58.6328 11.2117C58.6783 11.2466 58.7228 11.2826 58.7665 11.3198C58.8102 11.3569 58.8529 11.3951 58.8946 11.4343C58.9364 11.4737 58.9772 11.5139 59.017 11.5552C59.0567 11.5964 59.0954 11.6386 59.133 11.6818C59.1705 11.7251 59.207 11.7693 59.2425 11.8142C59.2779 11.8592 59.3121 11.9051 59.3451 11.9518C59.3782 11.9984 59.4101 12.0459 59.4409 12.0942C59.4715 12.1425 59.5009 12.1915 59.5291 12.2412C59.5573 12.291 59.5843 12.3414 59.61 12.3925C59.6357 12.4436 59.6601 12.4953 59.6831 12.5475C59.7062 12.5999 59.7279 12.6527 59.7482 12.7061C59.7687 12.7595 59.7878 12.8133 59.8055 12.8676C59.8232 12.9219 59.8395 12.9766 59.8545 13.0318C59.8694 13.0869 59.883 13.1423 59.8951 13.1982C59.9072 13.254 59.9179 13.31 59.9273 13.3663C60.0882 14.3219 59.9078 15.3371 59.331 16.1307C59.2752 16.2079 59.2162 16.2826 59.154 16.3549C59.0918 16.4271 59.0267 16.4967 58.9587 16.5636C58.8906 16.6305 58.8199 16.6944 58.7466 16.7554C58.6731 16.8163 58.5972 16.8742 58.5189 16.9289C58.4406 16.9835 58.3602 17.0349 58.2775 17.0829C58.1949 17.131 58.1104 17.1755 58.024 17.2165C57.9377 17.2574 57.8497 17.2948 57.7602 17.3285C57.6706 17.3622 57.5798 17.3921 57.4877 17.4183C56.5406 17.6819 55.3789 17.5546 54.3993 17.5492L48.279 17.5556C47.2816 17.5546 45.7701 17.4576 44.8453 17.615C44.4098 17.6891 44.0409 17.9546 43.7942 18.3127C43.5108 18.7241 43.4638 19.1215 43.6093 19.5981C43.6483 19.7258 43.7198 19.8487 43.7426 19.9801C43.7453 19.9965 43.7477 20.0132 43.7503 20.0297C44.1036 20.2947 44.3246 20.6448 44.7749 20.7808C45.5802 21.0241 46.6439 20.8884 47.4874 20.8862L53.9057 20.8789C54.9725 20.8792 56.1931 20.7836 57.2357 20.9438C57.6606 21.0091 58.0868 21.1912 58.4418 21.4295C58.4896 21.4622 58.5366 21.4961 58.5828 21.5311C58.6289 21.5661 58.6742 21.6023 58.7187 21.6396C58.763 21.6767 58.8064 21.715 58.8491 21.7543C58.8915 21.7936 58.9331 21.8339 58.9736 21.8752C59.0142 21.9165 59.0537 21.9588 59.0922 22.002C59.1307 22.0451 59.1681 22.0893 59.2044 22.1344C59.2407 22.1794 59.2759 22.2252 59.31 22.2719C59.344 22.3186 59.3769 22.3661 59.4087 22.4145C59.4404 22.4628 59.471 22.5118 59.5003 22.5615C59.5297 22.6113 59.5578 22.6618 59.5846 22.713C59.6116 22.7641 59.6372 22.8158 59.6615 22.8682C59.6859 22.9205 59.7089 22.9735 59.7306 23.0269C59.7524 23.0804 59.7729 23.1344 59.7919 23.1888C59.811 23.2433 59.8288 23.2982 59.8452 23.3535C59.8617 23.4088 59.8767 23.4645 59.8903 23.5206C59.904 23.5765 59.9163 23.6329 59.9273 23.6895C60.1026 24.6436 59.9246 25.6771 59.3605 26.4775C59.3268 26.5247 59.292 26.571 59.2562 26.6166C59.2202 26.662 59.1831 26.7065 59.145 26.7502C59.1068 26.7938 59.0676 26.8365 59.0272 26.8783C58.987 26.92 58.9457 26.9607 58.9034 27.0004C58.8611 27.0402 58.8178 27.0789 58.7735 27.1165C58.7293 27.154 58.6842 27.1905 58.6381 27.2259C58.5921 27.2613 58.5452 27.2955 58.4975 27.3286C58.4497 27.3617 58.4012 27.3936 58.3518 27.4243C58.3025 27.455 58.2524 27.4845 58.2016 27.5127C58.1507 27.5409 58.0992 27.5679 58.047 27.5936C57.9949 27.6193 57.9422 27.6438 57.8889 27.6669C57.8354 27.6901 57.7815 27.712 57.7271 27.7325C57.6726 27.753 57.6177 27.7722 57.5623 27.7899C57.5069 27.8077 57.4511 27.8242 57.3949 27.8392C57.3386 27.8543 57.282 27.868 57.2251 27.8804C57.1682 27.8926 57.111 27.9035 57.0536 27.913C56.2861 28.0422 55.4454 27.9807 54.6673 27.9798L50.7727 27.9757L45.7223 27.9788C44.724 27.9795 43.6398 28.0643 42.6563 27.8899C41.6053 27.7036 40.5409 27.2052 39.6782 26.5887C37.9598 25.3603 36.8589 23.4704 36.5295 21.4043C36.3908 20.5349 36.371 19.584 36.4947 18.7117C36.6191 17.8339 36.8656 16.9743 37.0757 16.1142C37.4209 14.6815 37.7781 13.2518 38.1474 11.8249L39.2363 7.66473C39.542 6.45934 39.8033 5.22576 40.2205 4.05234C40.3206 3.77549 40.4399 3.50708 40.5784 3.2471C40.717 2.98713 40.8734 2.73823 41.0477 2.50038C41.1093 2.41815 41.1729 2.33748 41.2386 2.25836C41.3042 2.17924 41.3717 2.10177 41.4411 2.02593C41.5106 1.9501 41.5819 1.876 41.655 1.80365C41.728 1.73128 41.8028 1.66075 41.8794 1.59204C41.9561 1.52334 42.0343 1.45653 42.1142 1.39164C42.1941 1.32674 42.2756 1.26382 42.3585 1.20289C42.4415 1.14197 42.526 1.0831 42.6119 1.02628C42.6979 0.969475 42.7852 0.914792 42.8737 0.862235C42.9624 0.809677 43.0522 0.759312 43.1434 0.71114C43.2346 0.662967 43.3268 0.617045 43.4203 0.573372C43.5136 0.529687 43.608 0.488308 43.7035 0.449235C43.799 0.410151 43.8954 0.373424 43.9926 0.339055C44.0899 0.304673 44.188 0.272683 44.2868 0.243084C44.3857 0.213485 44.4852 0.186311 44.5854 0.161562C44.6856 0.136813 44.7863 0.114517 44.8877 0.0946752C44.989 0.0748329 45.0907 0.0574723 45.1928 0.0425934Z" fill="url(#paint0_linear_27_238)"/>
<path d="M18.5739 11.5492C17.4408 8.41139 15.5206 5.48134 15.6471 3.63201C15.6567 3.49643 15.6737 3.36179 15.6983 3.22808C15.7229 3.09437 15.7549 2.96241 15.7942 2.83222C15.8335 2.70202 15.8799 2.57438 15.9335 2.44929C15.9871 2.3242 16.0475 2.20242 16.1146 2.08395C16.6102 1.20529 17.4929 0.540939 18.4693 0.275567C18.5302 0.259232 18.5915 0.244384 18.6532 0.231023C18.7148 0.217664 18.7767 0.205815 18.839 0.195477C18.9012 0.18514 18.9637 0.176325 19.0263 0.169033C19.089 0.16173 19.1518 0.155961 19.2149 0.151727C19.2778 0.147493 19.3408 0.144794 19.404 0.14363C19.467 0.142455 19.5301 0.142821 19.5932 0.144728C19.6563 0.146635 19.7194 0.150078 19.7822 0.155058C19.8452 0.160026 19.9079 0.166524 19.9705 0.174554C20.0331 0.182595 20.0955 0.192145 20.1576 0.203203C20.2197 0.214273 20.2815 0.226846 20.343 0.240922C20.4045 0.254998 20.4656 0.270567 20.5263 0.287628C20.5871 0.304678 20.6473 0.323199 20.7071 0.34319C20.767 0.36318 20.8263 0.384613 20.885 0.407488C20.9437 0.430364 21.0019 0.454659 21.0594 0.480375C21.117 0.506079 21.1739 0.53317 21.23 0.561648C21.2863 0.590125 21.3417 0.619956 21.3964 0.651139C22.0269 1.01122 22.6226 1.58009 22.954 2.22639C23.3224 2.94467 23.5092 3.7619 23.7252 4.53528L27.4376 17.7982C28.2568 14.717 29.0521 11.6298 29.8235 8.53637C30.2884 6.65617 30.6819 4.62713 31.2511 2.78618C31.5587 1.79143 32.2034 0.999758 33.1387 0.512434C34.0007 0.0632216 35.0554 -0.0550278 35.987 0.243229C37.0359 0.579038 37.8174 1.31756 38.309 2.27939C38.4234 2.54994 38.5221 2.85512 38.5779 3.1434C38.652 3.52742 38.591 3.8875 38.5157 4.26559C38.2274 5.71437 37.7975 7.16143 37.4367 8.59495C36.7753 11.2714 36.096 13.9433 35.3988 16.6107C34.7409 19.2305 33.8561 21.8948 33.0144 24.469C32.8315 25.0276 32.5841 25.5605 32.2492 26.0456C31.6941 26.8496 30.8766 27.5734 29.8838 27.7472C28.7436 27.9467 26.7832 28.0753 25.7021 27.6774C25.231 27.504 24.8037 27.1736 24.4944 26.7835C24.0681 26.2457 23.7856 25.5654 23.4718 24.9593C17.9403 9.84105 19.7069 14.687 18.5739 11.5492Z" fill="url(#paint1_linear_27_238)"/>
<path d="M2.48983 11.5492C0.703652 6.60283 -0.102227 4.98802 0.0103318 3.64149C0.122891 2.29496 0.0369424 3.37127 0.0614791 3.23756C0.08613 3.10385 0.1181 2.9719 0.157394 2.8417C0.196688 2.71151 0.243136 2.58386 0.29674 2.45877C0.350344 2.33368 0.410709 2.2119 0.477833 2.09344C0.973441 1.21477 1.85607 0.550422 2.83247 0.285051C2.89337 0.268716 2.95467 0.253867 3.01639 0.240507C3.07799 0.227148 3.13994 0.215299 3.20225 0.204961C3.26444 0.194624 3.32687 0.185809 3.38954 0.178517C3.4522 0.171214 3.51505 0.165445 3.57808 0.161211C3.641 0.156977 3.70403 0.154278 3.7672 0.153113C3.83024 0.151939 3.8933 0.152305 3.95637 0.154212C4.01955 0.156119 4.08257 0.159562 4.14542 0.164542C4.20839 0.169509 4.27115 0.176008 4.33368 0.184038C4.39633 0.192079 4.4587 0.201628 4.52079 0.212687C4.58289 0.223757 4.64471 0.236329 4.70625 0.250405C4.76768 0.264482 4.82877 0.280051 4.88953 0.297112C4.95029 0.314162 5.01055 0.332683 5.0703 0.352674C5.13016 0.372664 5.18946 0.394096 5.24821 0.416972C5.30695 0.439847 5.36507 0.464143 5.42257 0.489859C5.48018 0.515563 5.53706 0.542654 5.59321 0.571132C5.64947 0.599609 5.70494 0.629439 5.75962 0.660623C6.39016 1.02071 6.98582 1.58957 7.31723 2.23588C7.68559 2.95415 7.87241 3.77139 8.08843 4.54476L11.8008 17.8077C12.62 14.7265 13.4153 11.6392 14.1867 8.54586C14.6516 6.66565 15.0451 4.63662 15.6143 2.79566C15.9219 1.80091 16.5666 1.00924 17.5019 0.521918C18.3639 0.0727055 19.4186 -0.045544 20.3502 0.252713C21.3991 0.588522 22.1806 1.32704 22.6722 2.28887C22.7867 2.55942 22.8853 2.86461 22.9411 3.15288C23.0152 3.5369 22.9542 3.89699 22.8789 4.27508C22.5906 5.72385 22.1607 7.17091 21.7999 8.60444C21.1385 11.2808 20.4592 13.9527 19.762 16.6201C19.1041 19.24 18.2193 21.9043 17.3776 24.4784C17.1947 25.0371 16.9473 25.57 16.6124 26.0551C16.0573 26.8591 15.2398 27.5829 14.247 27.7566C13.1068 27.9562 11.1464 28.0848 10.0653 27.6869C9.59422 27.5135 9.16691 27.1831 8.85764 26.793C8.43128 26.2552 8.14884 25.5749 7.83497 24.9688C1.69675 9.91743 4.27601 16.4956 2.48983 11.5492Z" fill="url(#paint2_linear_27_238)"/>
<path d="M3.99108 39L1.75908 32.976H2.79108L4.65108 38.28H4.33908L6.25908 32.976H7.09908L8.98308 38.28H8.68308L10.5551 32.976H11.5391L9.29508 39H8.35908L6.41508 33.612H6.89508L4.93908 39H3.99108ZM15.0827 39.108C14.5067 39.108 14.0027 38.984 13.5707 38.736C13.1467 38.48 12.8187 38.12 12.5867 37.656C12.3547 37.184 12.2387 36.628 12.2387 35.988C12.2387 35.34 12.3547 34.784 12.5867 34.32C12.8187 33.856 13.1467 33.5 13.5707 33.252C14.0027 32.996 14.5067 32.868 15.0827 32.868C15.6667 32.868 16.1707 32.996 16.5947 33.252C17.0267 33.5 17.3587 33.856 17.5907 34.32C17.8307 34.784 17.9507 35.34 17.9507 35.988C17.9507 36.628 17.8307 37.184 17.5907 37.656C17.3587 38.12 17.0267 38.48 16.5947 38.736C16.1707 38.984 15.6667 39.108 15.0827 39.108ZM15.0827 38.316C15.6587 38.316 16.1147 38.12 16.4507 37.728C16.7867 37.328 16.9547 36.748 16.9547 35.988C16.9547 35.22 16.7827 34.64 16.4387 34.248C16.1027 33.848 15.6507 33.648 15.0827 33.648C14.5147 33.648 14.0627 33.848 13.7267 34.248C13.3907 34.64 13.2227 35.22 13.2227 35.988C13.2227 36.748 13.3907 37.328 13.7267 37.728C14.0627 38.12 14.5147 38.316 15.0827 38.316ZM19.3222 39V34.428C19.3222 34.188 19.3142 33.944 19.2982 33.696C19.2902 33.448 19.2742 33.208 19.2502 32.976H20.1862L20.3062 34.44L20.1382 34.452C20.2182 34.092 20.3582 33.796 20.5582 33.564C20.7582 33.332 20.9942 33.16 21.2662 33.048C21.5382 32.928 21.8222 32.868 22.1182 32.868C22.2382 32.868 22.3422 32.872 22.4302 32.88C22.5262 32.888 22.6142 32.908 22.6942 32.94L22.6822 33.804C22.5622 33.764 22.4502 33.74 22.3462 33.732C22.2502 33.716 22.1382 33.708 22.0102 33.708C21.6582 33.708 21.3502 33.792 21.0862 33.96C20.8302 34.128 20.6342 34.344 20.4982 34.608C20.3702 34.872 20.3062 35.152 20.3062 35.448V39H19.3222ZM23.5856 39V30.168H24.5576V35.652H24.5816L27.3776 32.976H28.6016L25.3016 36.12L25.3256 35.628L28.9136 39H27.6536L24.5816 36.168H24.5576V39H23.5856ZM32.165 39.108C31.221 39.108 30.477 38.836 29.933 38.292C29.389 37.74 29.117 36.976 29.117 36C29.117 35.368 29.237 34.82 29.477 34.356C29.717 33.884 30.053 33.52 30.485 33.264C30.917 33 31.413 32.868 31.973 32.868C32.525 32.868 32.989 32.984 33.365 33.216C33.741 33.448 34.029 33.78 34.229 34.212C34.429 34.636 34.529 35.14 34.529 35.724V36.084H29.861V35.472H33.893L33.689 35.628C33.689 34.988 33.545 34.488 33.257 34.128C32.969 33.768 32.541 33.588 31.973 33.588C31.373 33.588 30.905 33.8 30.569 34.224C30.233 34.64 30.065 35.204 30.065 35.916V36.024C30.065 36.776 30.249 37.348 30.617 37.74C30.993 38.124 31.517 38.316 32.189 38.316C32.549 38.316 32.885 38.264 33.197 38.16C33.517 38.048 33.821 37.868 34.109 37.62L34.445 38.304C34.181 38.56 33.845 38.76 33.437 38.904C33.037 39.04 32.613 39.108 32.165 39.108ZM37.602 39L35.022 32.976H36.078L38.238 38.28H37.914L40.098 32.976H41.106L38.526 39H37.602ZM44.675 39.108C43.731 39.108 42.987 38.836 42.443 38.292C41.899 37.74 41.627 36.976 41.627 36C41.627 35.368 41.747 34.82 41.987 34.356C42.227 33.884 42.563 33.52 42.995 33.264C43.427 33 43.923 32.868 44.483 32.868C45.035 32.868 45.499 32.984 45.875 33.216C46.251 33.448 46.539 33.78 46.739 34.212C46.939 34.636 47.039 35.14 47.039 35.724V36.084H42.371V35.472H46.403L46.199 35.628C46.199 34.988 46.055 34.488 45.767 34.128C45.479 33.768 45.051 33.588 44.483 33.588C43.883 33.588 43.415 33.8 43.079 34.224C42.743 34.64 42.575 35.204 42.575 35.916V36.024C42.575 36.776 42.759 37.348 43.127 37.74C43.503 38.124 44.027 38.316 44.699 38.316C45.059 38.316 45.395 38.264 45.707 38.16C46.027 38.048 46.331 37.868 46.619 37.62L46.955 38.304C46.691 38.56 46.355 38.76 45.947 38.904C45.547 39.04 45.123 39.108 44.675 39.108ZM48.4064 39V34.368C48.4064 34.144 48.3944 33.916 48.3704 33.684C48.3544 33.444 48.3344 33.208 48.3104 32.976H49.2464L49.3664 34.296H49.2224C49.3984 33.832 49.6784 33.48 50.0624 33.24C50.4544 32.992 50.9064 32.868 51.4184 32.868C52.1304 32.868 52.6664 33.06 53.0264 33.444C53.3944 33.82 53.5784 34.416 53.5784 35.232V39H52.6064V35.292C52.6064 34.724 52.4904 34.312 52.2584 34.056C52.0344 33.792 51.6824 33.66 51.2024 33.66C50.6424 33.66 50.1984 33.832 49.8704 34.176C49.5424 34.52 49.3784 34.98 49.3784 35.556V39H48.4064ZM57.4536 39.108C56.8616 39.108 56.4096 38.94 56.0976 38.604C55.7856 38.26 55.6296 37.744 55.6296 37.056V33.732H54.4536V32.976H55.6296V31.332L56.6016 31.056V32.976H58.3296V33.732H56.6016V36.948C56.6016 37.428 56.6816 37.772 56.8416 37.98C57.0096 38.18 57.2576 38.28 57.5856 38.28C57.7376 38.28 57.8736 38.268 57.9936 38.244C58.1136 38.212 58.2216 38.176 58.3176 38.136V38.952C58.2056 39 58.0696 39.036 57.9096 39.06C57.7576 39.092 57.6056 39.108 57.4536 39.108Z" fill="url(#paint3_linear_27_238)"/>
<defs>
<linearGradient id="paint0_linear_27_238" x1="2.58661e-08" y1="0.815534" x2="62.5136" y2="8.60955" gradientUnits="userSpaceOnUse">
<stop stop-color="#494BE2"/>
<stop offset="1" stop-color="#2426B0"/>
</linearGradient>
<linearGradient id="paint1_linear_27_238" x1="2.58661e-08" y1="0.815534" x2="62.5136" y2="8.60955" gradientUnits="userSpaceOnUse">
<stop stop-color="#494BE2"/>
<stop offset="1" stop-color="#2426B0"/>
</linearGradient>
<linearGradient id="paint2_linear_27_238" x1="2.58661e-08" y1="0.815534" x2="62.5136" y2="8.60955" gradientUnits="userSpaceOnUse">
<stop stop-color="#494BE2"/>
<stop offset="1" stop-color="#2426B0"/>
</linearGradient>
<linearGradient id="paint3_linear_27_238" x1="2.58661e-08" y1="31.233" x2="53.3302" y2="54.5047" gradientUnits="userSpaceOnUse">
<stop stop-color="#494BE2"/>
<stop offset="1" stop-color="#2426B0"/>
</linearGradient>
</defs>
</svg>
