<svg width="449" height="304" viewBox="0 0 449 304" fill="none" xmlns="http://www.w3.org/2000/svg">
<path d="M299.646 26.5339C304.846 23.026 310.614 20.1026 316.083 17.0252L367.007 -11.5897C371.859 -14.314 376.756 -17.4379 381.973 -19.402C385.53 -20.7409 389.663 -20.9723 393.412 -20.5835C400.585 -19.84 407.399 -16.4557 411.906 -10.8075C416.777 -4.70271 419.427 2.9267 418.493 10.7816C417.768 16.8823 415.175 22.6502 410.748 26.9948C405.733 31.9174 398.006 35.2153 391.89 38.6516L345.902 64.562C340.664 67.5082 330.558 72.3845 326.161 75.8728C323.074 78.3216 320.853 81.7275 320.446 85.683C320.11 88.9546 321.163 92.1671 323.245 94.6863C326.225 98.2903 331.383 100.115 336.018 99.2973C342.723 98.1125 349.707 92.8244 355.622 89.4706L398.757 65.195C406.094 61.0782 414.266 55.6207 422.04 52.7135C422.965 52.3725 423.906 52.0859 424.863 51.8537C425.82 51.6203 426.787 51.4428 427.764 51.3213C428.741 51.1993 429.722 51.134 430.705 51.1254C431.689 51.1156 432.67 51.1628 433.647 51.2669C434.097 51.3092 434.546 51.3624 434.993 51.4263C435.44 51.4908 435.885 51.5665 436.328 51.6536C436.771 51.7402 437.212 51.8377 437.649 51.9463C438.088 52.0551 438.523 52.1746 438.955 52.3046C439.387 52.4347 439.816 52.5755 440.24 52.7271C440.665 52.8795 441.086 53.0419 441.502 53.2144C441.919 53.3868 442.331 53.5697 442.737 53.7631C443.145 53.956 443.547 54.159 443.944 54.3721C444.34 54.5855 444.731 54.8087 445.117 55.0416C445.502 55.2744 445.882 55.5168 446.255 55.7687C446.629 56.0206 446.995 56.2815 447.355 56.5513C447.716 56.8218 448.068 57.1012 448.414 57.3893C448.76 57.677 449.098 57.9731 449.429 58.2776C449.76 58.5821 450.083 58.895 450.399 59.2163C450.714 59.5369 451.02 59.8656 451.319 60.2026C451.617 60.5388 451.907 60.8822 452.188 61.2328C456.977 67.175 459.651 74.8414 458.749 82.5145C458.663 83.2598 458.546 84.0004 458.398 84.7364C458.249 85.4721 458.07 86.2009 457.861 86.9227C457.651 87.6443 457.412 88.3557 457.144 89.0571C456.874 89.7588 456.576 90.4487 456.249 91.1266C455.922 91.8033 455.567 92.466 455.185 93.1148C454.803 93.763 454.394 94.3944 453.96 95.009C453.524 95.6228 453.064 96.2183 452.579 96.7954C452.094 97.3717 451.586 97.9272 451.054 98.4618C445.566 103.923 437.098 107.527 430.35 111.265L388.346 134.902C381.493 138.739 370.739 143.899 364.996 148.545C362.29 150.732 360.781 153.978 360.467 157.388C360.106 161.305 361.316 164.215 364.152 166.928C364.912 167.654 365.877 168.222 366.54 169.037C366.622 169.139 366.703 169.245 366.784 169.348C370.232 169.806 373.099 171.358 376.715 170.556C383.183 169.123 389.965 164.091 395.749 160.824L439.796 136.034C447.122 131.924 455.136 126.562 462.913 123.644C466.083 122.454 469.711 122.062 473.068 122.33C473.522 122.37 473.976 122.421 474.428 122.484C474.88 122.547 475.33 122.62 475.779 122.705C476.226 122.789 476.672 122.884 477.117 122.99C477.56 123.097 478 123.213 478.438 123.34C478.876 123.468 479.31 123.606 479.741 123.754C480.172 123.902 480.599 124.061 481.022 124.231C481.445 124.399 481.863 124.579 482.277 124.768C482.69 124.957 483.1 125.157 483.504 125.367C483.908 125.576 484.307 125.795 484.7 126.023C485.094 126.252 485.481 126.49 485.863 126.738C486.245 126.985 486.621 127.242 486.99 127.507C487.359 127.773 487.721 128.048 488.076 128.332C488.432 128.615 488.78 128.906 489.121 129.206C489.462 129.507 489.796 129.816 490.122 130.132C490.448 130.448 490.766 130.773 491.075 131.106C491.385 131.437 491.687 131.777 491.981 132.123C496.862 138 499.623 145.783 498.835 153.454C498.785 153.907 498.725 154.36 498.655 154.811C498.583 155.261 498.5 155.71 498.406 156.157C498.312 156.604 498.207 157.048 498.092 157.491C497.976 157.932 497.85 158.371 497.711 158.806C497.574 159.242 497.426 159.675 497.267 160.104C497.108 160.532 496.939 160.957 496.759 161.378C496.58 161.798 496.39 162.214 496.189 162.625C495.989 163.036 495.778 163.442 495.558 163.844C495.337 164.245 495.107 164.64 494.867 165.03C494.626 165.419 494.377 165.803 494.117 166.181C493.859 166.558 493.591 166.929 493.314 167.294C493.036 167.659 492.75 168.017 492.456 168.368C492.161 168.719 491.857 169.062 491.545 169.398C491.234 169.733 490.914 170.061 490.586 170.381C490.257 170.702 489.921 171.014 489.578 171.319C489.235 171.622 488.884 171.917 488.526 172.204C483.754 176.049 477.743 178.867 472.397 181.861L445.637 196.845L410.967 216.334C404.114 220.186 396.996 224.948 389.57 227.542C381.634 230.314 372.404 230.994 364.103 230.086C347.568 228.274 332.723 219.54 322.496 206.621C318.193 201.185 314.391 194.732 311.878 188.265C309.349 181.758 307.729 174.904 305.856 168.188C302.704 157.019 299.646 145.824 296.682 134.602L288.123 101.836C285.576 92.3804 282.615 82.9021 280.957 73.2359C280.577 70.949 280.362 68.6459 280.311 66.3265C280.26 64.0072 280.375 61.6949 280.655 59.3897C280.761 58.5877 280.887 57.7885 281.033 56.9919C281.179 56.1959 281.344 55.4036 281.528 54.6152C281.713 53.8267 281.917 53.0431 282.14 52.2645C282.362 51.4862 282.604 50.7134 282.865 49.9461C283.127 49.1789 283.407 48.4185 283.705 47.6651C284.004 46.9112 284.321 46.1652 284.655 45.4271C284.991 44.6887 285.344 43.9588 285.715 43.2375C286.086 42.5159 286.475 41.804 286.88 41.1018C287.286 40.3992 287.709 39.7068 288.15 39.0247C288.59 38.3425 289.047 37.6714 289.52 37.0113C289.993 36.3516 290.481 35.7035 290.987 35.0671C291.492 34.4306 292.012 33.807 292.547 33.1962C293.083 32.585 293.633 31.9873 294.197 31.4032C294.762 30.8186 295.341 30.2483 295.934 29.6922C296.526 29.1361 297.132 28.5946 297.751 28.0678C298.371 27.541 299.002 27.0297 299.646 26.5339Z" fill="#03032E"/>
<path d="M161.205 208.158C141.329 190.978 116.848 178.259 110.589 165.072C110.132 164.104 109.73 163.113 109.383 162.101C109.037 161.087 108.748 160.058 108.516 159.012C108.284 157.967 108.111 156.911 107.997 155.846C107.883 154.78 107.828 153.711 107.832 152.639C107.848 144.695 111.349 136.73 117.031 131.144C117.386 130.797 117.75 130.459 118.122 130.129C118.494 129.8 118.873 129.48 119.261 129.169C119.649 128.858 120.043 128.557 120.446 128.265C120.848 127.974 121.257 127.692 121.674 127.42C122.089 127.148 122.512 126.886 122.941 126.635C123.369 126.384 123.804 126.143 124.244 125.913C124.686 125.683 125.132 125.464 125.582 125.256C126.034 125.047 126.49 124.85 126.95 124.664C127.412 124.478 127.877 124.303 128.346 124.139C128.815 123.976 129.288 123.824 129.765 123.683C130.241 123.543 130.72 123.415 131.203 123.298C131.686 123.181 132.171 123.075 132.659 122.982C133.147 122.889 133.637 122.808 134.128 122.738C134.62 122.669 135.113 122.612 135.607 122.567C136.101 122.521 136.596 122.488 137.092 122.467C137.588 122.446 138.084 122.437 138.58 122.44C144.298 122.482 150.581 124.093 155.348 127.253C160.646 130.766 165.079 135.658 169.544 140.136L246.161 216.904C239.91 192.587 233.471 168.321 226.844 144.105C222.789 129.401 217.67 113.951 214.482 99.1152C212.76 91.0984 214.136 83.1768 218.68 76.2251C222.868 69.8175 229.655 64.9398 237.202 63.3971C245.7 61.6597 253.913 63.7191 260.997 68.4288C262.825 69.8457 264.679 71.561 266.173 73.3258C268.163 75.677 269.132 78.385 270.072 81.2716C273.677 92.332 276.302 103.926 279.351 115.161C285.125 136.09 290.76 157.056 296.254 178.061C301.834 198.588 306.029 220.294 310.171 241.216C311.069 245.757 311.424 250.37 310.994 254.992C310.281 262.653 307.457 270.775 301.31 275.795C294.249 281.561 281.283 290.001 272.324 291.436C268.421 292.061 264.213 291.439 260.586 289.952C255.585 287.902 251.023 284.32 246.531 281.367C150.27 198.87 181.081 225.339 161.205 208.158Z" fill="#03032E"/>
<path d="M50.7545 270.157C19.4219 243.075 7.66335 235.092 3.24588 225.411C-1.1716 215.731 2.38699 223.453 2.04008 222.44C1.69395 221.427 1.40486 220.398 1.17284 219.352C0.940813 218.307 0.767754 217.251 0.653671 216.185C0.539589 215.12 0.484708 214.051 0.489012 212.979C0.505439 205.034 4.00568 197.07 9.68782 191.484C10.043 191.137 10.4068 190.799 10.7791 190.469C11.1507 190.14 11.5304 189.82 11.9184 189.508C12.3057 189.198 12.7004 188.897 13.1026 188.605C13.5048 188.313 13.9142 188.031 14.3307 187.759C14.7464 187.488 15.1689 187.226 15.5981 186.975C16.0265 186.724 16.461 186.483 16.9014 186.253C17.3426 186.023 17.7887 185.803 18.2395 185.595C18.6911 185.387 19.1471 185.189 19.6074 185.003C20.0686 184.817 20.5337 184.642 21.0028 184.479C21.4719 184.316 21.9448 184.164 22.4217 184.023C22.8978 183.883 23.3774 183.754 23.8604 183.637C24.3433 183.52 24.8285 183.415 25.3159 183.322C25.8041 183.229 26.2939 183.147 26.7855 183.078C27.277 183.009 27.7698 182.951 28.2638 182.906C28.7585 182.861 29.2536 182.828 29.7489 182.807C30.245 182.785 30.7409 182.776 31.2366 182.78C36.9546 182.822 43.2378 184.432 48.005 187.593C53.3032 191.106 57.7363 195.998 62.2009 200.476L138.818 277.244C132.567 252.927 126.128 228.661 119.501 204.445C115.446 189.741 110.327 174.291 107.139 159.455C105.417 151.438 106.793 143.517 111.337 136.565C115.525 130.157 122.312 125.28 129.859 123.737C138.357 121.999 146.57 124.059 153.654 128.769C155.482 130.185 157.336 131.901 158.83 133.666C160.82 136.017 161.789 138.725 162.729 141.611C166.334 152.672 168.959 164.266 172.008 175.501C177.782 196.429 183.417 217.396 188.911 238.401C194.491 258.928 198.686 280.634 202.828 301.556C203.726 306.097 204.081 310.71 203.651 315.332C202.938 322.993 200.114 331.115 193.967 336.135C186.906 341.9 173.94 350.34 164.981 351.775C161.078 352.4 156.87 351.778 153.243 350.292C148.242 348.242 143.68 344.659 139.188 341.707C39.0183 262.008 82.0871 297.239 50.7545 270.157Z" fill="#03032E"/>
</svg>
