<svg width="120" height="120" viewBox="0 0 16 16" fill="none" xmlns="http://www.w3.org/2000/svg">
    <g clip-path="url(#clip0_2001_705)">
        <path
            d="M7.69671 6.75312C7.2272 5.45286 6.43148 4.23869 6.48392 3.47236C6.48788 3.41618 6.49495 3.36038 6.50511 3.30498C6.51533 3.24957 6.52858 3.19489 6.54486 3.14094C6.56114 3.08699 6.58039 3.03409 6.6026 2.98226C6.62482 2.93042 6.64983 2.87996 6.67765 2.83087C6.88302 2.46676 7.24876 2.19147 7.65337 2.0815C7.6786 2.07473 7.70401 2.06858 7.72958 2.06304C7.75511 2.05751 7.78078 2.0526 7.8066 2.04831C7.83237 2.04403 7.85824 2.04038 7.88421 2.03736C7.91018 2.03433 7.93622 2.03194 7.96234 2.03018C7.98841 2.02843 8.01453 2.02731 8.04071 2.02683C8.06683 2.02634 8.09296 2.02649 8.11909 2.02728C8.14528 2.02807 8.17139 2.0295 8.19744 2.03157C8.22353 2.03362 8.24953 2.03632 8.27545 2.03964C8.30141 2.04298 8.32725 2.04693 8.35298 2.05152C8.37871 2.0561 8.40433 2.06131 8.42983 2.06715C8.45529 2.07298 8.4806 2.07943 8.50578 2.0865C8.53096 2.09357 8.55593 2.10124 8.58069 2.10952C8.6055 2.11781 8.63007 2.12669 8.65441 2.13617C8.67875 2.14565 8.70284 2.15572 8.72666 2.16637C8.75054 2.17702 8.77411 2.18825 8.79738 2.20005C8.82069 2.21185 8.84368 2.22421 8.86634 2.23713C9.12762 2.38635 9.37445 2.62207 9.51179 2.88989C9.66443 3.18754 9.74184 3.52619 9.83136 3.84666L11.3697 9.34262C11.7092 8.06582 12.0388 6.7865 12.3584 5.50465C12.551 4.72552 12.7141 3.88472 12.9499 3.12186C13.0774 2.70965 13.3446 2.3816 13.7321 2.17966C14.0893 1.99351 14.5264 1.94451 14.9124 2.0681C15.3471 2.20726 15.6709 2.51329 15.8747 2.91185C15.9221 3.02397 15.963 3.15043 15.9861 3.26989C16.0168 3.42902 15.9915 3.57823 15.9603 3.73491C15.8408 4.33526 15.6627 4.9349 15.5132 5.52893C15.2391 6.63798 14.9576 7.74518 14.6687 8.8505C14.3961 9.93612 14.0294 11.0402 13.6806 12.1069C13.6049 12.3384 13.5024 12.5592 13.3636 12.7602C13.1335 13.0933 12.7948 13.3933 12.3834 13.4653C11.9109 13.548 11.0985 13.6013 10.6505 13.4364C10.4553 13.3645 10.2783 13.2276 10.1501 13.066C9.97343 12.8431 9.85639 12.5612 9.72633 12.3101C7.43418 6.04529 8.16623 8.05339 7.69671 6.75312Z"
            fill="url(#paint0_linear_2001_705)" />
        <path
            d="M1.03175 6.75312C0.291582 4.70342 -0.0423613 4.03427 0.00428132 3.47629C0.0509239 2.91831 0.0153083 3.36431 0.025476 3.30891C0.0356909 3.2535 0.0489388 3.19882 0.0652215 3.14487C0.0815043 3.09092 0.100752 3.03802 0.122964 2.98619C0.145177 2.93435 0.170192 2.88389 0.198007 2.8348C0.403378 2.47069 0.769125 2.1954 1.17373 2.08543C1.19897 2.07866 1.22437 2.07251 1.24994 2.06697C1.27547 2.06144 1.30114 2.05653 1.32696 2.05224C1.35273 2.04796 1.3786 2.04431 1.40457 2.04129C1.43054 2.03826 1.45658 2.03587 1.4827 2.03411C1.50877 2.03236 1.53489 2.03124 1.56107 2.03076C1.58719 2.03027 1.61332 2.03042 1.63946 2.03121C1.66564 2.032 1.69175 2.03343 1.7178 2.0355C1.74389 2.03755 1.7699 2.04025 1.79581 2.04357C1.82177 2.04691 1.84761 2.05086 1.87334 2.05545C1.89908 2.06003 1.92469 2.06524 1.95019 2.07108C1.97565 2.07691 2.00097 2.08336 2.02614 2.09043C2.05132 2.0975 2.07629 2.10517 2.10105 2.11345C2.12586 2.12174 2.15043 2.13062 2.17477 2.1401C2.19911 2.14958 2.2232 2.15965 2.24703 2.1703C2.2709 2.18095 2.29447 2.19218 2.31774 2.20398C2.34105 2.21578 2.36404 2.22814 2.3867 2.24106C2.64798 2.39028 2.89481 2.626 3.03215 2.89382C3.18479 3.19147 3.2622 3.53012 3.35172 3.85059L4.89006 9.34655C5.22955 8.06975 5.55911 6.79043 5.87874 5.50858C6.0714 4.72945 6.23444 3.88865 6.4703 3.12579C6.59777 2.71358 6.86493 2.38553 7.25249 2.18359C7.6097 1.99744 8.04677 1.94844 8.43279 2.07203C8.86747 2.21119 9.19128 2.51722 9.39502 2.91578C9.44243 3.0279 9.48332 3.15436 9.50643 3.27382C9.53715 3.43295 9.51187 3.58216 9.48067 3.73884C9.36118 4.33919 9.18302 4.93883 9.03353 5.53286C8.75946 6.64191 8.47798 7.74911 8.18907 8.85443C7.91642 9.94005 7.54979 11.0441 7.20099 12.1108C7.12523 12.3423 7.02271 12.5631 6.88393 12.7641C6.65387 13.0973 6.31512 13.3972 5.90375 13.4692C5.43127 13.5519 4.61891 13.6052 4.1709 13.4403C3.97569 13.3685 3.79863 13.2316 3.67047 13.0699C3.49379 12.847 3.37675 12.5652 3.24669 12.314C0.703108 6.07694 1.77191 8.80283 1.03175 6.75312Z"
            fill="url(#paint1_linear_2001_705)" />
    </g>
    <defs>
        <linearGradient id="paint0_linear_2001_705" x1="-1.77754e-09" y1="2.30526" x2="25.9046"
            y2="5.53497" gradientUnits="userSpaceOnUse">
            <stop stop-color="#494BE2" />
            <stop offset="1" stop-color="#2B2DC4" />
        </linearGradient>
        <linearGradient id="paint1_linear_2001_705" x1="-1.77754e-09" y1="2.30526" x2="25.9046"
            y2="5.53497" gradientUnits="userSpaceOnUse">
            <stop stop-color="#494BE2" />
            <stop offset="1" stop-color="#2B2DC4" />
        </linearGradient>
        <clipPath id="clip0_2001_705">
            <rect width="16" height="16" fill="white" />
        </clipPath>
    </defs>
</svg>