<svg width="40" height="40" viewBox="0 0 40 40" fill="none" xmlns="http://www.w3.org/2000/svg">
<path fill-rule="evenodd" clip-rule="evenodd" d="M17.5714 31.6667C17.5714 31.0478 17.8273 30.4543 18.2827 30.0168C18.7382 29.5792 19.3559 29.3333 20 29.3333H34.5714C35.2155 29.3333 35.8332 29.5792 36.2887 30.0168C36.7441 30.4543 37 31.0478 37 31.6667C37 32.2855 36.7441 32.879 36.2887 33.3166C35.8332 33.7542 35.2155 34 34.5714 34H20C19.3559 34 18.7382 33.7542 18.2827 33.3166C17.8273 32.879 17.5714 32.2855 17.5714 31.6667ZM3 8.33333C3 7.71449 3.25587 7.121 3.71131 6.68342C4.16676 6.24583 4.78447 6 5.42857 6H34.5714C35.2155 6 35.8332 6.24583 36.2887 6.68342C36.7441 7.121 37 7.71449 37 8.33333C37 8.95217 36.7441 9.54566 36.2887 9.98325C35.8332 10.4208 35.2155 10.6667 34.5714 10.6667H5.42857C4.78447 10.6667 4.16676 10.4208 3.71131 9.98325C3.25587 9.54566 3 8.95217 3 8.33333ZM3 20C3 19.3812 3.25587 18.7877 3.71131 18.3501C4.16676 17.9125 4.78447 17.6667 5.42857 17.6667H34.5714C35.2155 17.6667 35.8332 17.9125 36.2887 18.3501C36.7441 18.7877 37 19.3812 37 20C37 20.6188 36.7441 21.2123 36.2887 21.6499C35.8332 22.0875 35.2155 22.3333 34.5714 22.3333H5.42857C4.78447 22.3333 4.16676 22.0875 3.71131 21.6499C3.25587 21.2123 3 20.6188 3 20Z" fill="url(#paint0_linear_290_2646)"/>
<defs>
<linearGradient id="paint0_linear_290_2646" x1="3" y1="6.81553" x2="38.7963" y2="9.34456" gradientUnits="userSpaceOnUse">
<stop stop-color="#494BE2"/>
<stop offset="1" stop-color="#2426B0"/>
</linearGradient>
</defs>
</svg>
